<svg width="52" height="59" viewBox="0 0 52 59" fill="none" xmlns="http://www.w3.org/2000/svg">
<mask id="mask0" mask-type="alpha" maskUnits="userSpaceOnUse" x="8" y="27" width="36" height="32">
<path d="M8.5 48V54C11.5 55.5 18.5 58.5 22.5 58.5C27.5 58.5 35.5 58 40 57.5C44.5 57 43.5 55.5 43.5 53.5V47.5V42.2084V38C43.5 37 42.5 35 42 33.5C41.5 32 39 30 37.5 28.5C36 27 33 28 31 27.5C29 27 18.5 27.5 17.5 27.5C16.7 27.5 13.5 28.1667 12 28.5L8.5 34.5V48Z" fill="#C4C4C4"/>
</mask>
<g mask="url(#mask0)">
<path d="M1.56167 10.3789L25.7283 2.04555C25.9044 1.98482 26.0956 1.98482 26.2717 2.04555L50.4383 10.3789C50.7744 10.4948 50.9999 10.811 51 11.1664V51.1667C51 51.6269 50.6269 52 50.1667 52H46C45.5398 52 45.1667 51.6269 45.1667 51.1667V25.3332H6.83333V51.1667C6.83333 51.6269 6.46021 52 6 52H1.83333C1.37312 52 1 51.6269 1 51.1667V11.1664C1.0001 10.811 1.22562 10.4948 1.56167 10.3789ZM46.8333 50.3333H49.3333V18.6665H46.8333V50.3333ZM6.83333 23.6665H45.1667V21.9998H6.83333V23.6665ZM6.83333 20.3331H45.1667V18.6665H6.83333V20.3331ZM2.66667 50.3333H5.16667V18.6665H2.66667V50.3333ZM2.66667 16.9998H49.3333V11.7606L26 3.71472L2.66667 11.7606V16.9998Z" fill="white"/>
<path d="M9.79417 37.9162L12.8775 36.3745L15.6275 30.8745C16.0505 30.0281 16.9172 29.4951 17.8633 29.4995H34.1367C35.0844 29.4963 35.9514 30.0322 36.3725 30.8811L39.1225 36.3812L42.2058 37.9229C42.4876 38.0637 42.6658 38.3512 42.6667 38.6662V50.3329C42.6667 51.2535 41.9205 51.9996 41 51.9996H37.6667C36.7461 51.9996 36 51.2535 36 50.3329V47.8329H16V50.3329C16 51.2535 15.2539 51.9996 14.3333 51.9996H11C10.0795 51.9996 9.33333 51.2535 9.33333 50.3329V38.6662C9.33156 38.3488 9.51031 38.058 9.79417 37.9162ZM34.8817 31.627C34.7416 31.3439 34.4526 31.1651 34.1367 31.1661H17.8633C17.5474 31.1651 17.2584 31.3439 17.1183 31.627L14.8483 36.1662H37.1517L34.8817 31.627ZM37.6667 50.3329H41V47.8329H37.6667V50.3329ZM11 50.3329H14.3333V47.8329H11V50.3329ZM11 46.1662H41V39.1812L38.3033 37.8329H13.6967L11 39.1812V46.1662Z" fill="white"/>
<path d="M35.1667 39.4995H37.6667C38.5872 39.4995 39.3333 40.2457 39.3333 41.1662V42.8329C39.3333 43.7534 38.5872 44.4995 37.6667 44.4995H35.1667C34.2462 44.4995 33.5 43.7534 33.5 42.8329V41.1662C33.5 40.2457 34.2462 39.4995 35.1667 39.4995ZM35.1667 42.8329H37.6667V41.1662H35.1667V42.8329Z" fill="white"/>
<path d="M14.3333 39.4995H16.8333C17.7539 39.4995 18.5 40.2457 18.5 41.1662V42.8329C18.5 43.7534 17.7539 44.4995 16.8333 44.4995H14.3333C13.4128 44.4995 12.6667 43.7534 12.6667 42.8329V41.1662C12.6667 40.2457 13.4128 39.4995 14.3333 39.4995ZM14.3333 42.8329H16.8333V41.1662H14.3333V42.8329Z" fill="white"/>
<path d="M21.8333 39.4995H30.1667C31.0872 39.4995 31.8333 40.2457 31.8333 41.1662V42.8329C31.8333 43.7534 31.0872 44.4995 30.1667 44.4995H21.8333C20.9128 44.4995 20.1667 43.7534 20.1667 42.8329V41.1662C20.1667 40.2457 20.9128 39.4995 21.8333 39.4995ZM21.8333 42.8329H30.1667V41.1662H21.8333V42.8329Z" fill="white"/>
</g>
<path d="M50.375 7.3125C50.8243 7.3125 51.1875 6.9485 51.1875 6.5V1.625C51.1875 1.1765 50.8243 0.8125 50.375 0.8125H1.625C1.17569 0.8125 0.8125 1.1765 0.8125 1.625V6.5C0.8125 6.9485 1.17569 7.3125 1.625 7.3125H2.4375V49.5625H0.8125V51.1875H51.1875V49.5625H49.5625V7.3125H50.375ZM2.4375 2.4375H49.5625V5.6875H2.4375V2.4375ZM23.5625 7.3125V8.9375H8.9375V10.5625H43.0625V8.9375H28.4375V7.3125H44.6875V49.5625H7.3125V7.3125H23.5625ZM25.1875 8.9375V7.3125H26.8125V8.9375H25.1875ZM4.0625 7.3125H5.6875V49.5625H4.0625V7.3125ZM47.9375 49.5625H46.3125V7.3125H47.9375V49.5625Z" fill="white"/>
<path d="M26 26.1875C28.2401 26.1875 30.0625 24.3651 30.0625 22.125C30.0625 20.8599 29.5701 19.6704 28.6756 18.7767C27.4739 17.575 26.8125 15.9784 26.8125 14.2787V14C26.8125 13.5515 26.4493 13.1875 26 13.1875C25.5507 13.1875 25.1875 13.5515 25.1875 14V14.2787C25.1875 15.9776 24.5261 17.575 23.3244 18.7767C22.4299 19.6704 21.9375 20.8599 21.9375 22.125C21.9375 24.3651 23.7599 26.1875 26 26.1875ZM24.4733 19.9256C25.1046 19.2951 25.6173 18.576 26 17.7976C26.3827 18.576 26.8954 19.2942 27.5267 19.9256C28.1141 20.513 28.4375 21.2946 28.4375 22.125C28.4375 23.4689 27.3439 24.5625 26 24.5625C24.6561 24.5625 23.5625 23.4689 23.5625 22.125C23.5625 21.2946 23.8859 20.513 24.4733 19.9256Z" fill="white"/>
<path d="M37.375 26.1875C39.6151 26.1875 41.4375 24.3651 41.4375 22.125C41.4375 20.8599 40.9451 19.6704 40.0506 18.7767C38.8489 17.575 38.1875 15.9784 38.1875 14.2787V14C38.1875 13.5515 37.8243 13.1875 37.375 13.1875C36.9257 13.1875 36.5625 13.5515 36.5625 14V14.2787C36.5625 15.9776 35.9011 17.575 34.6994 18.7767C33.8049 19.6704 33.3125 20.8599 33.3125 22.125C33.3125 24.3651 35.1349 26.1875 37.375 26.1875ZM35.8483 19.9256C36.4796 19.2951 36.9923 18.576 37.375 17.7976C37.7577 18.576 38.2704 19.2942 38.9017 19.9256C39.4891 20.513 39.8125 21.2946 39.8125 22.125C39.8125 23.4689 38.7189 24.5625 37.375 24.5625C36.0311 24.5625 34.9375 23.4689 34.9375 22.125C34.9375 21.2946 35.2609 20.513 35.8483 19.9256Z" fill="white"/>
<path d="M14.625 26.1875C16.8651 26.1875 18.6875 24.3651 18.6875 22.125C18.6875 20.8599 18.1951 19.6704 17.3006 18.7767C16.0989 17.575 15.4375 15.9784 15.4375 14.2787V14C15.4375 13.5515 15.0743 13.1875 14.625 13.1875C14.1757 13.1875 13.8125 13.5515 13.8125 14V14.2787C13.8125 15.9776 13.1511 17.575 11.9494 18.7767C11.0549 19.6704 10.5625 20.8599 10.5625 22.125C10.5625 24.3651 12.3849 26.1875 14.625 26.1875ZM13.0983 19.9256C13.7296 19.2951 14.2423 18.576 14.625 17.7976C15.0077 18.576 15.5204 19.2942 16.1517 19.9256C16.7391 20.513 17.0625 21.2946 17.0625 22.125C17.0625 23.4689 15.9689 24.5625 14.625 24.5625C13.2811 24.5625 12.1875 23.4689 12.1875 22.125C12.1875 21.2946 12.5109 20.513 13.0983 19.9256Z" fill="white"/>
</svg>
