<svg width="51" height="46" viewBox="0 0 51 46" fill="none" xmlns="http://www.w3.org/2000/svg">
<path d="M50.3305 12.8125L26.0292 0.130695C25.6954 -0.043565 25.3044 -0.043565 24.9707 0.130695L0.66957 12.8125C0.259676 13.0265 0 13.4689 0 13.9535V43.5591C0 44.905 1.03234 46 2.30122 46H48.6987C49.9677 46 51 44.905 51 43.5591V13.9535C51 13.4689 50.7403 13.0265 50.3305 12.8125ZM40.1465 29.6922H10.8534V25.3239H40.1465V29.6922ZM10.8534 32.2353H40.1465V36.6038H10.8534V32.2353ZM40.1465 22.7808H10.8534V18.2467H40.1465V22.7808ZM10.8534 39.1469H40.1465V43.4569H10.8534V39.1469ZM48.6024 43.4569H42.5441V16.9751C42.5441 16.2727 42.0075 15.7035 41.3453 15.7035H9.65461C8.99254 15.7035 8.45578 16.2727 8.45578 16.9751V43.4569H2.39765V14.745L25.4999 2.68876L48.6024 14.745V43.4569Z" fill="white"/>
</svg>
