<svg width="50" height="50" viewBox="0 0 50 50" fill="none" xmlns="http://www.w3.org/2000/svg">
<path d="M0.561667 8.37893L24.7283 0.0455471C24.9044 -0.0151824 25.0956 -0.0151824 25.2717 0.0455471L49.4383 8.37893C49.7744 8.49476 49.9999 8.81101 50 9.16643V49.1667C50 49.6269 49.6269 50 49.1667 50H45C44.5398 50 44.1667 49.6269 44.1667 49.1667V23.3332H5.83333V49.1667C5.83333 49.6269 5.46021 50 5 50H0.833333C0.373125 50 0 49.6269 0 49.1667V9.16643C0.000104167 8.81101 0.225625 8.49476 0.561667 8.37893ZM45.8333 48.3333H48.3333V16.6665H45.8333V48.3333ZM5.83333 21.6665H44.1667V19.9998H5.83333V21.6665ZM5.83333 18.3331H44.1667V16.6665H5.83333V18.3331ZM1.66667 48.3333H4.16667V16.6665H1.66667V48.3333ZM1.66667 14.9998H48.3333V9.7606L25 1.71472L1.66667 9.7606V14.9998Z" fill="white"/>
<path d="M8.79417 35.9162L11.8775 34.3745L14.6275 28.8745C15.0505 28.0281 15.9172 27.4951 16.8633 27.4995H33.1367C34.0844 27.4963 34.9514 28.0322 35.3725 28.8811L38.1225 34.3812L41.2058 35.9229C41.4876 36.0637 41.6658 36.3512 41.6667 36.6662V48.3329C41.6667 49.2535 40.9205 49.9996 40 49.9996H36.6667C35.7461 49.9996 35 49.2535 35 48.3329V45.8329H15V48.3329C15 49.2535 14.2539 49.9996 13.3333 49.9996H10C9.07948 49.9996 8.33333 49.2535 8.33333 48.3329V36.6662C8.33156 36.3488 8.51031 36.058 8.79417 35.9162ZM33.8817 29.627C33.7416 29.3439 33.4526 29.1651 33.1367 29.1661H16.8633C16.5474 29.1651 16.2584 29.3439 16.1183 29.627L13.8483 34.1662H36.1517L33.8817 29.627ZM36.6667 48.3329H40V45.8329H36.6667V48.3329ZM10 48.3329H13.3333V45.8329H10V48.3329ZM10 44.1662H40V37.1812L37.3033 35.8329H12.6967L10 37.1812V44.1662Z" fill="white"/>
<path d="M34.1667 37.4995H36.6667C37.5872 37.4995 38.3333 38.2457 38.3333 39.1662V40.8329C38.3333 41.7534 37.5872 42.4995 36.6667 42.4995H34.1667C33.2462 42.4995 32.5 41.7534 32.5 40.8329V39.1662C32.5 38.2457 33.2462 37.4995 34.1667 37.4995ZM34.1667 40.8329H36.6667V39.1662H34.1667V40.8329Z" fill="white"/>
<path d="M13.3333 37.4995H15.8333C16.7539 37.4995 17.5 38.2457 17.5 39.1662V40.8329C17.5 41.7534 16.7539 42.4995 15.8333 42.4995H13.3333C12.4128 42.4995 11.6667 41.7534 11.6667 40.8329V39.1662C11.6667 38.2457 12.4128 37.4995 13.3333 37.4995ZM13.3333 40.8329H15.8333V39.1662H13.3333V40.8329Z" fill="white"/>
<path d="M20.8333 37.4995H29.1667C30.0872 37.4995 30.8333 38.2457 30.8333 39.1662V40.8329C30.8333 41.7534 30.0872 42.4995 29.1667 42.4995H20.8333C19.9128 42.4995 19.1667 41.7534 19.1667 40.8329V39.1662C19.1667 38.2457 19.9128 37.4995 20.8333 37.4995ZM20.8333 40.8329H29.1667V39.1662H20.8333V40.8329Z" fill="white"/>
</svg>
