<svg width="57" height="55" viewBox="0 0 57 55" fill="none" xmlns="http://www.w3.org/2000/svg">
<path d="M53.437 46.9931C53.4384 46.9534 53.4391 46.9141 53.4391 46.875C53.438 45.8808 53.0425 44.9276 52.3395 44.2246C51.6365 43.5216 50.6833 43.1261 49.6891 43.125V25.7812L53.0641 23.25C53.1813 23.1621 53.2763 23.0479 53.3414 22.9167C53.4065 22.7854 53.44 22.6407 53.4391 22.4942C53.4382 22.3477 53.4029 22.2034 53.3362 22.073C53.2694 21.9425 53.173 21.8295 53.0547 21.7431L45.0016 15.858V5.625C45.2502 5.625 45.4887 5.52623 45.6645 5.35041C45.8403 5.1746 45.9391 4.93614 45.9391 4.6875V0.9375C45.9391 0.68886 45.8403 0.450403 45.6645 0.274587C45.4887 0.098772 45.2502 0 45.0016 0H35.6266C35.378 0 35.1395 0.098772 34.9637 0.274587C34.7879 0.450403 34.6891 0.68886 34.6891 0.9375V4.6875C34.6891 4.93614 34.7879 5.1746 34.9637 5.35041C35.1395 5.52623 35.378 5.625 35.6266 5.625V9.00715L28.6797 3.93059C28.5192 3.81326 28.3255 3.75003 28.1266 3.75003C27.9277 3.75003 27.734 3.81326 27.5735 3.93059L3.19848 21.7431C3.08017 21.8295 2.98378 21.9425 2.91704 22.073C2.85029 22.2034 2.81505 22.3477 2.81414 22.4942C2.81322 22.6407 2.84667 22.7854 2.91179 22.9167C2.97691 23.0479 3.07188 23.1621 3.1891 23.25L6.5641 25.7812V43.125C5.56988 43.1261 4.6167 43.5216 3.91368 44.2246C3.21066 44.9276 2.81522 45.8808 2.8141 46.875C2.8141 46.9141 2.8148 46.9534 2.81621 46.9931C1.93178 47.2205 1.16073 47.7628 0.647706 48.5183C0.134686 49.2738 -0.0850392 50.1905 0.0297574 51.0964C0.144554 52.0024 0.585982 52.8353 1.27122 53.4389C1.95646 54.0425 2.83841 54.3754 3.7516 54.375H52.5016C53.4148 54.3754 54.2967 54.0425 54.982 53.4389C55.6672 52.8353 56.1086 52.0024 56.2234 51.0964C56.3382 50.1905 56.1185 49.2738 55.6055 48.5183C55.0925 47.7628 54.3214 47.2205 53.437 46.9931ZM36.5641 1.875H44.0641V3.75H36.5641V1.875ZM37.5016 10.3125V5.625H43.1266V14.4879L37.4129 10.3125H37.5016ZM28.1266 5.84859L50.926 22.5098L48.743 24.1471L28.6781 9.5543C28.5178 9.43773 28.3248 9.37493 28.1266 9.37493C27.9284 9.37493 27.7354 9.43773 27.5751 9.5543L7.51015 24.1471L5.32719 22.5098L28.1266 5.84859ZM1.8766 50.625C1.87712 50.1327 2.07099 49.6604 2.41643 49.3096C2.76188 48.9589 3.23127 48.758 3.72347 48.75H3.7257C3.77363 48.7567 3.82156 48.7624 3.87043 48.7656C4.02579 48.7754 4.18114 48.7464 4.32247 48.6811C4.4638 48.6158 4.58665 48.5164 4.67995 48.3918C4.77325 48.2672 4.83404 48.1213 4.85686 47.9673C4.87967 47.8134 4.86378 47.6561 4.81062 47.5098C4.73304 47.307 4.6919 47.0921 4.6891 46.875C4.68969 46.3779 4.88742 45.9013 5.23893 45.5498C5.59043 45.1983 6.067 45.0006 6.5641 45V52.5H3.7516C3.2545 52.4994 2.77793 52.3017 2.42643 51.9502C2.07492 51.5987 1.87719 51.1221 1.8766 50.625ZM42.1891 52.5H30.9391V31.875H42.1891V52.5ZM44.0641 52.5V30.9375C44.0641 30.6889 43.9653 30.4504 43.7895 30.2746C43.6137 30.0988 43.3752 30 43.1266 30H30.0016C29.753 30 29.5145 30.0988 29.3387 30.2746C29.1629 30.4504 29.0641 30.6889 29.0641 30.9375V52.5H8.4391V25.7899L28.1266 11.4717L47.8141 25.7899V52.5H44.0641ZM52.5016 52.5H49.6891V45C50.1862 45.0006 50.6628 45.1983 51.0143 45.5498C51.3658 45.9013 51.5635 46.3779 51.5641 46.875C51.5614 47.0923 51.5202 47.3073 51.4426 47.5103C51.3894 47.6566 51.3735 47.8138 51.3963 47.9678C51.4192 48.1218 51.48 48.2677 51.5732 48.3923C51.6665 48.5169 51.7894 48.6163 51.9307 48.6816C52.0721 48.7468 52.2274 48.7759 52.3828 48.7661C52.4316 48.7629 52.4796 48.7571 52.5275 48.7505H52.5297C53.027 48.7542 53.5024 48.9553 53.8514 49.3096C54.2004 49.6639 54.3944 50.1423 54.3907 50.6395C54.3869 51.1368 54.1858 51.6122 53.8315 51.9612C53.4773 52.3102 52.9989 52.5037 52.5016 52.5Z" fill="white"/>
<path d="M24.3766 30H13.1266C12.878 30 12.6395 30.0988 12.4637 30.2746C12.2879 30.4504 12.1891 30.6889 12.1891 30.9375V44.0625C12.1891 44.3111 12.2879 44.5496 12.4637 44.7254C12.6395 44.9012 12.878 45 13.1266 45H24.3766C24.6253 45 24.8637 44.9012 25.0395 44.7254C25.2153 44.5496 25.3141 44.3111 25.3141 44.0625V30.9375C25.3141 30.6889 25.2153 30.4504 25.0395 30.2746C24.8637 30.0988 24.6253 30 24.3766 30ZM23.4391 36.5625H19.6891V31.875H23.4391V36.5625ZM17.8141 31.875V36.5625H14.0641V31.875H17.8141ZM14.0641 38.4375H17.8141V43.125H14.0641V38.4375ZM19.6891 43.125V38.4375H23.4391V43.125H19.6891Z" fill="white"/>
<path d="M34.6178 41.6088C34.8159 41.1304 34.5888 40.582 34.1104 40.3839C33.6321 40.1857 33.0837 40.4129 32.8855 40.8912C32.6874 41.3696 32.9145 41.918 33.3929 42.1161C33.8713 42.3143 34.4197 42.0871 34.6178 41.6088Z" fill="white"/>
</svg>
