<svg width="51" height="46" viewBox="0 0 51 46" fill="none" xmlns="http://www.w3.org/2000/svg">
<path d="M50.0407 44.1037H44.9519V12.7222C44.9519 12.2538 44.5721 11.8741 44.1037 11.8741H29.6852V0.848148C29.6852 0.379758 29.3054 0 28.837 0H6.78519C6.3168 0 5.93704 0.379758 5.93704 0.848148V44.1037H0.848148C0.379758 44.1037 0 44.4835 0 44.9519C0 45.4202 0.379758 45.8 0.848148 45.8H50.0407C50.5091 45.8 50.8889 45.4202 50.8889 44.9519C50.8889 44.4835 50.5091 44.1037 50.0407 44.1037ZM27.9889 44.1037H7.63333V1.6963H27.9889V44.1037ZM43.2556 44.1037H29.6852V13.5704H43.2556V44.1037Z" fill="white"/>
<path d="M33.9259 22.847H39.0148C39.4832 22.847 39.8629 22.4673 39.8629 21.9989V16.91C39.8629 16.4416 39.4832 16.0618 39.0148 16.0618H33.9259C33.4575 16.0618 33.0778 16.4416 33.0778 16.91V21.9989C33.0778 22.4673 33.4575 22.847 33.9259 22.847ZM34.7741 17.7581H38.1667V21.1507H34.7741V17.7581Z" fill="white"/>
<path d="M33.9259 31.3285H39.0148C39.4832 31.3285 39.8629 30.9487 39.8629 30.4803V25.3915C39.8629 24.9231 39.4832 24.5433 39.0148 24.5433H33.9259C33.4575 24.5433 33.0778 24.9231 33.0778 25.3915V30.4803C33.0778 30.9487 33.4575 31.3285 33.9259 31.3285ZM34.7741 26.2396H38.1667V29.6322H34.7741V26.2396Z" fill="white"/>
<path d="M33.9259 39.81H39.0148C39.4832 39.81 39.8629 39.4302 39.8629 38.9618V33.8729C39.8629 33.4045 39.4832 33.0248 39.0148 33.0248H33.9259C33.4575 33.0248 33.0778 33.4045 33.0778 33.8729V38.9618C33.0778 39.4302 33.4575 39.81 33.9259 39.81ZM34.7741 34.7211H38.1667V38.1137H34.7741V34.7211Z" fill="white"/>
<path d="M19.5074 22.847H24.5963C25.0647 22.847 25.4444 22.4673 25.4444 21.9989V16.91C25.4444 16.4416 25.0647 16.0618 24.5963 16.0618H19.5074C19.039 16.0618 18.6592 16.4416 18.6592 16.91V21.9989C18.6592 22.4673 19.039 22.847 19.5074 22.847ZM20.3555 17.7581H23.7481V21.1507H20.3555V17.7581Z" fill="white"/>
<path d="M19.5074 14.3655H24.5963C25.0647 14.3655 25.4444 13.9857 25.4444 13.5174V8.42847C25.4444 7.96008 25.0647 7.58032 24.5963 7.58032H19.5074C19.039 7.58032 18.6592 7.96008 18.6592 8.42847V13.5174C18.6592 13.9857 19.039 14.3655 19.5074 14.3655ZM20.3555 9.27662H23.7481V12.6692H20.3555V9.27662Z" fill="white"/>
<path d="M19.5074 31.3285H24.5963C25.0647 31.3285 25.4444 30.9487 25.4444 30.4803V25.3915C25.4444 24.9231 25.0647 24.5433 24.5963 24.5433H19.5074C19.039 24.5433 18.6592 24.9231 18.6592 25.3915V30.4803C18.6592 30.9487 19.039 31.3285 19.5074 31.3285ZM20.3555 26.2396H23.7481V29.6322H20.3555V26.2396Z" fill="white"/>
<path d="M19.5074 39.81H24.5963C25.0647 39.81 25.4444 39.4302 25.4444 38.9618V33.8729C25.4444 33.4045 25.0647 33.0248 24.5963 33.0248H19.5074C19.039 33.0248 18.6592 33.4045 18.6592 33.8729V38.9618C18.6592 39.4302 19.039 39.81 19.5074 39.81ZM20.3555 34.7211H23.7481V38.1137H20.3555V34.7211Z" fill="white"/>
<path d="M11.0259 22.847H16.1148C16.5832 22.847 16.9629 22.4673 16.9629 21.9989V16.91C16.9629 16.4416 16.5832 16.0618 16.1148 16.0618H11.0259C10.5575 16.0618 10.1777 16.4416 10.1777 16.91V21.9989C10.1777 22.4673 10.5575 22.847 11.0259 22.847ZM11.874 17.7581H15.2666V21.1507H11.874V17.7581Z" fill="white"/>
<path d="M11.0259 14.3655H16.1148C16.5832 14.3655 16.9629 13.9857 16.9629 13.5174V8.42847C16.9629 7.96008 16.5832 7.58032 16.1148 7.58032H11.0259C10.5575 7.58032 10.1777 7.96008 10.1777 8.42847V13.5174C10.1777 13.9857 10.5575 14.3655 11.0259 14.3655ZM11.874 9.27662H15.2666V12.6692H11.874V9.27662Z" fill="white"/>
<path d="M11.0259 31.3285H16.1148C16.5832 31.3285 16.9629 30.9487 16.9629 30.4803V25.3915C16.9629 24.9231 16.5832 24.5433 16.1148 24.5433H11.0259C10.5575 24.5433 10.1777 24.9231 10.1777 25.3915V30.4803C10.1777 30.9487 10.5575 31.3285 11.0259 31.3285ZM11.874 26.2396H15.2666V29.6322H11.874V26.2396Z" fill="white"/>
<path d="M11.0259 39.81H16.1148C16.5832 39.81 16.9629 39.4302 16.9629 38.9618V33.8729C16.9629 33.4045 16.5832 33.0248 16.1148 33.0248H11.0259C10.5575 33.0248 10.1777 33.4045 10.1777 33.8729V38.9618C10.1777 39.4302 10.5575 39.81 11.0259 39.81ZM11.874 34.7211H15.2666V38.1137H11.874V34.7211Z" fill="white"/>
</svg>
