<svg width="10" height="10" viewBox="0 0 10 10" fill="none" xmlns="http://www.w3.org/2000/svg">
<path d="M9.7435 7.37566L8.50036 6.13251C8.15762 5.78979 7.59993 5.78979 7.25721 6.13251L6.69215 6.69757C6.4325 6.95722 6.01 6.95714 5.75045 6.69767L3.30122 4.24635C3.04097 3.9861 3.04093 3.56487 3.30122 3.30458C3.39224 3.21356 3.65359 2.95221 3.86628 2.73952C4.20752 2.3983 4.21228 1.84235 3.86595 1.49606L2.62314 0.257149C2.2804 -0.0855664 1.72273 -0.0855664 1.38091 0.256251C1.12513 0.509806 1.04263 0.591603 0.927939 0.705294C-0.308001 1.94121 -0.308001 3.95221 0.92788 5.18809L4.80859 9.07083C6.04742 10.3097 8.0525 10.3098 9.29143 9.07083L9.7435 8.61878C10.0862 8.27605 10.0862 7.71839 9.7435 7.37566ZM1.79439 0.671525C1.90862 0.557286 2.09448 0.557267 2.20909 0.671837L3.45191 1.91075C3.56642 2.02526 3.56642 2.21059 3.45191 2.32512L3.2447 2.53231L1.58825 0.875861L1.79439 0.671525ZM5.22305 8.65652L1.34231 4.77374C0.386102 3.81753 0.333543 2.31606 1.18067 1.29705L2.83232 2.9487C2.39833 3.44067 2.41642 4.19034 2.88675 4.66067L5.3359 7.11187C5.33592 7.11189 5.33596 7.11193 5.33597 7.11194C5.8058 7.58179 6.55543 7.60105 7.04801 7.16648L8.69969 8.81816C7.68393 9.66382 6.18584 9.61931 5.22305 8.65652ZM9.32915 8.20441L9.12194 8.41161L7.46442 6.75407L7.67159 6.54689C7.78584 6.43265 7.97172 6.43263 8.08598 6.54689L9.32913 7.79003C9.44339 7.90429 9.44339 8.09019 9.32915 8.20441Z" fill="black"/>
</svg>
