<svg width="56" height="56" viewBox="0 0 56 56" fill="none" xmlns="http://www.w3.org/2000/svg">
<path d="M1.85788 49.3875H4.4706V18.0131C4.47058 17.8866 4.50085 17.7618 4.55887 17.6494C4.61688 17.5369 4.70097 17.4399 4.8041 17.3665L27.5406 1.21126C27.6748 1.11598 27.8354 1.06479 28 1.06479C28.1647 1.06479 28.3252 1.11598 28.4595 1.21126L51.1959 17.3665C51.2991 17.4399 51.3832 17.5369 51.4412 17.6494C51.4992 17.7618 51.5295 17.8866 51.5294 18.0131V49.3875H54.1422C54.2463 49.3874 54.3495 49.4079 54.4457 49.4477C54.5419 49.4876 54.6294 49.546 54.703 49.6196C54.7766 49.6933 54.8351 49.7807 54.8749 49.8769C54.9147 49.9732 54.9352 50.0763 54.9351 50.1805V54.1403C54.9352 54.2445 54.9147 54.3476 54.8749 54.4439C54.8351 54.5401 54.7766 54.6275 54.703 54.7012C54.6294 54.7748 54.5419 54.8332 54.4457 54.8731C54.3495 54.9129 54.2463 54.9334 54.1422 54.9333H1.85788C1.75373 54.9334 1.65059 54.9129 1.55435 54.8731C1.45812 54.8332 1.37068 54.7748 1.29703 54.7012C1.22339 54.6275 1.16498 54.5401 1.12515 54.4439C1.08532 54.3476 1.06485 54.2445 1.06491 54.1403V50.1805C1.06485 50.0763 1.08532 49.9732 1.12515 49.8769C1.16498 49.7807 1.22339 49.6933 1.29703 49.6196C1.37068 49.546 1.45812 49.4876 1.55435 49.4477C1.65059 49.4079 1.75373 49.3874 1.85788 49.3875ZM49.9435 18.4223L28 2.83073L6.05654 18.4223V49.3875H9.40105V22.9776C9.40099 22.8734 9.42146 22.7703 9.46129 22.674C9.50112 22.5778 9.55953 22.4904 9.63317 22.4167C9.70682 22.3431 9.79426 22.2847 9.89049 22.2448C9.98673 22.205 10.0899 22.1845 10.194 22.1846H45.8078C45.912 22.1845 46.0151 22.205 46.1114 22.2448C46.2076 22.2847 46.295 22.3431 46.3687 22.4167C46.4423 22.4904 46.5007 22.5778 46.5406 22.674C46.5804 22.7703 46.6009 22.8734 46.6008 22.9776V49.3875H49.9435V18.4223ZM16.932 49.3875V39.9068C16.932 39.6965 17.0155 39.4948 17.1642 39.3461C17.313 39.1973 17.5146 39.1138 17.725 39.1138H22.0695V29.6313C22.0695 29.4209 22.1531 29.2193 22.3018 29.0705C22.4505 28.9218 22.6522 28.8383 22.8625 28.8383H33.1376C33.3479 28.8383 33.5495 28.9218 33.6983 29.0705C33.847 29.2193 33.9305 29.4209 33.9305 29.6313V39.1138H38.2751C38.4854 39.1138 38.6871 39.1973 38.8358 39.3461C38.9845 39.4948 39.0681 39.6965 39.0681 39.9068V49.3875H45.0131V23.7705H10.987V49.3875H16.932ZM37.4821 49.3875V43.8517H28.793V49.3875H37.4821ZM18.5179 42.2657H27.2071V40.6997H18.5179V42.2657ZM23.6555 31.9907H32.3446V30.4247H23.6555V31.9907ZM32.3446 33.5766H23.6555V39.1138H32.3446V33.5766ZM28.793 40.6997V42.2657H37.4821V40.6997H28.793ZM27.2071 43.8517H18.5179V49.3875H27.2071V43.8517ZM2.65085 53.3492H53.3492V50.9734H2.65085V53.3492Z" fill="white"/>
<path d="M31.089 20.364H24.9111C24.7008 20.364 24.4991 20.2804 24.3504 20.1317C24.2017 19.983 24.1181 19.7813 24.1181 19.571V16.4549C24.1182 16.2446 24.2018 16.043 24.3505 15.8943C24.4992 15.7456 24.7008 15.662 24.9111 15.6619H31.089C31.2993 15.662 31.5009 15.7456 31.6496 15.8943C31.7983 16.043 31.8818 16.2446 31.882 16.4549V19.5719C31.8817 19.7821 31.7981 19.9835 31.6494 20.132C31.5007 20.2805 31.2992 20.364 31.089 20.364ZM30.296 17.2478H25.7041V18.778H30.296V17.2478Z" fill="white"/>
<path d="M21.6255 20.364H15.4485C15.2381 20.364 15.0365 20.2804 14.8877 20.1317C14.739 19.983 14.6555 19.7813 14.6555 19.571V16.4549C14.6556 16.2446 14.7392 16.043 14.8879 15.8943C15.0366 15.7456 15.2382 15.662 15.4485 15.6619H21.6255C21.8357 15.662 22.0374 15.7456 22.186 15.8943C22.3347 16.043 22.4183 16.2446 22.4184 16.4549V19.5719C22.4182 19.7821 22.3345 19.9835 22.1859 20.132C22.0372 20.2805 21.8356 20.364 21.6255 20.364ZM20.8325 17.2478H16.241V18.778H20.8325V17.2478Z" fill="white"/>
<path d="M40.5516 20.364H34.3746C34.1643 20.364 33.9626 20.2804 33.8139 20.1317C33.6651 19.983 33.5816 19.7813 33.5816 19.571V16.4549C33.5817 16.2446 33.6653 16.043 33.814 15.8943C33.9627 15.7456 34.1643 15.662 34.3746 15.6619H40.5516C40.7618 15.662 40.9635 15.7456 41.1121 15.8943C41.2608 16.043 41.3444 16.2446 41.3445 16.4549V19.5719C41.3443 19.7821 41.2606 19.9835 41.112 20.132C40.9633 20.2805 40.7617 20.364 40.5516 20.364ZM39.7586 17.2478H35.1675V18.778H39.7591L39.7586 17.2478Z" fill="white"/>
<path d="M1.85788 49.3875H4.4706V18.0131C4.47058 17.8866 4.50085 17.7618 4.55887 17.6494C4.61688 17.5369 4.70097 17.4399 4.8041 17.3665L27.5406 1.21126C27.6748 1.11598 27.8354 1.06479 28 1.06479C28.1647 1.06479 28.3252 1.11598 28.4595 1.21126L51.1959 17.3665C51.2991 17.4399 51.3832 17.5369 51.4412 17.6494C51.4992 17.7618 51.5295 17.8866 51.5294 18.0131V49.3875H54.1422C54.2463 49.3874 54.3495 49.4079 54.4457 49.4477C54.5419 49.4876 54.6294 49.546 54.703 49.6196C54.7766 49.6933 54.8351 49.7807 54.8749 49.8769C54.9147 49.9732 54.9352 50.0763 54.9351 50.1805V54.1403C54.9352 54.2445 54.9147 54.3476 54.8749 54.4439C54.8351 54.5401 54.7766 54.6275 54.703 54.7012C54.6294 54.7748 54.5419 54.8332 54.4457 54.8731C54.3495 54.9129 54.2463 54.9334 54.1422 54.9333H1.85788C1.75373 54.9334 1.65059 54.9129 1.55435 54.8731C1.45812 54.8332 1.37068 54.7748 1.29703 54.7012C1.22339 54.6275 1.16498 54.5401 1.12515 54.4439C1.08532 54.3476 1.06485 54.2445 1.06491 54.1403V50.1805C1.06485 50.0763 1.08532 49.9732 1.12515 49.8769C1.16498 49.7807 1.22339 49.6933 1.29703 49.6196C1.37068 49.546 1.45812 49.4876 1.55435 49.4477C1.65059 49.4079 1.75373 49.3874 1.85788 49.3875ZM49.9435 18.4223L28 2.83073L6.05654 18.4223V49.3875H9.40105V22.9776C9.40099 22.8734 9.42146 22.7703 9.46129 22.674C9.50112 22.5778 9.55953 22.4904 9.63317 22.4167C9.70682 22.3431 9.79426 22.2847 9.89049 22.2448C9.98673 22.205 10.0899 22.1845 10.194 22.1846H45.8078C45.912 22.1845 46.0151 22.205 46.1114 22.2448C46.2076 22.2847 46.295 22.3431 46.3687 22.4167C46.4423 22.4904 46.5007 22.5778 46.5406 22.674C46.5804 22.7703 46.6009 22.8734 46.6008 22.9776V49.3875H49.9435V18.4223ZM16.932 49.3875V39.9068C16.932 39.6965 17.0155 39.4948 17.1642 39.3461C17.313 39.1973 17.5146 39.1138 17.725 39.1138H22.0695V29.6313C22.0695 29.4209 22.1531 29.2193 22.3018 29.0705C22.4505 28.9218 22.6522 28.8383 22.8625 28.8383H33.1376C33.3479 28.8383 33.5495 28.9218 33.6983 29.0705C33.847 29.2193 33.9305 29.4209 33.9305 29.6313V39.1138H38.2751C38.4854 39.1138 38.6871 39.1973 38.8358 39.3461C38.9845 39.4948 39.0681 39.6965 39.0681 39.9068V49.3875H45.0131V23.7705H10.987V49.3875H16.932ZM37.4821 49.3875V43.8517H28.793V49.3875H37.4821ZM18.5179 42.2657H27.2071V40.6997H18.5179V42.2657ZM23.6555 31.9907H32.3446V30.4247H23.6555V31.9907ZM32.3446 33.5766H23.6555V39.1138H32.3446V33.5766ZM28.793 40.6997V42.2657H37.4821V40.6997H28.793ZM27.2071 43.8517H18.5179V49.3875H27.2071V43.8517ZM2.65085 53.3492H53.3492V50.9734H2.65085V53.3492Z" stroke="white" stroke-width="0.4"/>
<path d="M31.089 20.364H24.9111C24.7008 20.364 24.4991 20.2804 24.3504 20.1317C24.2017 19.983 24.1181 19.7813 24.1181 19.571V16.4549C24.1182 16.2446 24.2018 16.043 24.3505 15.8943C24.4992 15.7456 24.7008 15.662 24.9111 15.6619H31.089C31.2993 15.662 31.5009 15.7456 31.6496 15.8943C31.7983 16.043 31.8818 16.2446 31.882 16.4549V19.5719C31.8817 19.7821 31.7981 19.9835 31.6494 20.132C31.5007 20.2805 31.2992 20.364 31.089 20.364ZM30.296 17.2478H25.7041V18.778H30.296V17.2478Z" stroke="white" stroke-width="0.4"/>
<path d="M21.6255 20.364H15.4485C15.2381 20.364 15.0365 20.2804 14.8877 20.1317C14.739 19.983 14.6555 19.7813 14.6555 19.571V16.4549C14.6556 16.2446 14.7392 16.043 14.8879 15.8943C15.0366 15.7456 15.2382 15.662 15.4485 15.6619H21.6255C21.8357 15.662 22.0374 15.7456 22.186 15.8943C22.3347 16.043 22.4183 16.2446 22.4184 16.4549V19.5719C22.4182 19.7821 22.3345 19.9835 22.1859 20.132C22.0372 20.2805 21.8356 20.364 21.6255 20.364ZM20.8325 17.2478H16.241V18.778H20.8325V17.2478Z" stroke="white" stroke-width="0.4"/>
<path d="M40.5516 20.364H34.3746C34.1643 20.364 33.9626 20.2804 33.8139 20.1317C33.6651 19.983 33.5816 19.7813 33.5816 19.571V16.4549C33.5817 16.2446 33.6653 16.043 33.814 15.8943C33.9627 15.7456 34.1643 15.662 34.3746 15.6619H40.5516C40.7618 15.662 40.9635 15.7456 41.1121 15.8943C41.2608 16.043 41.3444 16.2446 41.3445 16.4549V19.5719C41.3443 19.7821 41.2606 19.9835 41.112 20.132C40.9633 20.2805 40.7617 20.364 40.5516 20.364ZM39.7586 17.2478H35.1675V18.778H39.7591L39.7586 17.2478Z" stroke="white" stroke-width="0.4"/>
</svg>
