<svg width="56" height="48" viewBox="0 0 56 48" fill="none" xmlns="http://www.w3.org/2000/svg">
<path d="M48.6017 3.56735H7.39832C6.90482 3.56735 6.50473 3.96732 6.50473 4.46094V10.1421C6.50473 10.6357 6.90482 11.0357 7.39832 11.0357H48.6018C49.0955 11.0357 49.4954 10.6357 49.4954 10.1421V4.46094C49.4953 3.96744 49.0953 3.56735 48.6017 3.56735ZM47.7081 9.24854H8.2919V5.35452H47.7082V9.24854H47.7081Z" fill="white"/>
<path d="M55.9432 21.2737L52.7837 12.8476V1.59372C52.7837 1.1001 52.3837 0.700134 51.8901 0.700134H4.10991C3.61641 0.700134 3.21632 1.1001 3.21632 1.59372V12.8474L0.056959 21.2737C-0.0459822 21.5481 -0.00773671 21.8555 0.159185 22.0964C0.326107 22.3372 0.600617 22.481 0.893714 22.481H3.21644V45.5127H1.90859C1.41509 45.5127 1.015 45.9126 1.015 46.4063C1.015 46.8999 1.41509 47.2998 1.90859 47.2998H54.0916C54.5852 47.2998 54.9851 46.8999 54.9851 46.4063C54.9851 45.9126 54.5852 45.5127 54.0916 45.5127H52.7837V22.481H55.1064C55.3995 22.481 55.674 22.3373 55.8408 22.0964C56.0079 21.8555 56.046 21.548 55.9432 21.2737ZM5.0035 2.48731H50.9965V12.1158H5.0035V2.48731ZM10.9288 13.9029L9.23135 20.6938H6.62673L8.74858 13.9031L10.9288 13.9029ZM12.7709 13.9029H14.9783L13.7052 20.6937H11.0735L12.7709 13.9029ZM16.7966 13.9029H19.0245L18.1757 20.6937H15.5234L16.7966 13.9029ZM20.8255 13.9029H23.0672L22.6428 20.6937H19.9767L20.8255 13.9029ZM24.8578 13.9029H27.1064V20.6937H24.4334L24.8578 13.9029ZM28.8935 13.9029H31.1422L31.5666 20.6937H28.8935V13.9029ZM33.3572 20.6938L32.9328 13.9031H35.1744L36.0231 20.6938H33.3572ZM37.8243 20.6938L36.9757 13.9031H39.2034L40.4766 20.6938H37.8243ZM42.2949 20.6938L41.0217 13.9031H43.229L44.9265 20.6938H42.2949ZM46.7687 20.6938L45.0712 13.9031H47.2514L49.3732 20.6938H46.7687ZM4.72911 13.9029H6.8761L4.75437 20.6938H2.18298L4.72911 13.9029ZM38.4597 34.7872H44.777V41.0449H38.4597V34.7872ZM38.4597 42.832H44.777V45.5123H38.4597V42.832ZM36.5943 30.4862L37.5859 27.3771H45.6505L46.6421 30.4862H36.5943ZM44.7772 32.2734V33.0001H38.4599V32.2734H44.7772ZM50.9965 45.5126H46.5643V32.2734H47.8652C48.1504 32.2734 48.4185 32.1372 48.5867 31.907C48.7549 31.6768 48.8032 31.3799 48.7166 31.1083L47.1548 26.212C47.0366 25.8416 46.6923 25.59 46.3034 25.59H36.9331C36.5443 25.59 36.2 25.8415 36.0817 26.212L34.5201 31.1083C34.4334 31.3799 34.4817 31.6767 34.65 31.907C34.8182 32.1373 35.0863 32.2734 35.3715 32.2734H36.6728V45.5126H5.0035V22.481H50.9965V45.5126ZM51.2458 20.6938L49.124 13.9031H51.2708L53.817 20.6938H51.2458Z" fill="white"/>
<path d="M7.94032 32.2734H9.01476V41.6787C9.01476 42.1723 9.41485 42.5723 9.90835 42.5723H29.3244C29.818 42.5723 30.218 42.1723 30.218 41.6787V32.2734H31.2923C31.5776 32.2734 31.8457 32.1372 32.0139 31.907C32.1821 31.6768 32.2304 31.3799 32.1438 31.1083L30.5821 26.212C30.4639 25.8416 30.1196 25.59 29.7307 25.59H9.50207C9.11318 25.59 8.76897 25.8415 8.65066 26.212L7.08903 31.1083C7.00241 31.3799 7.05066 31.6767 7.21889 31.907C7.38713 32.1373 7.6552 32.2734 7.94032 32.2734ZM28.4308 40.7851H10.8019V32.2734H28.4308V40.7851ZM10.155 27.3771H29.0776L30.0692 30.4862H9.16334L10.155 27.3771Z" fill="white"/>
</svg>
