<svg width="40" height="40" viewBox="0 0 40 40" fill="none" xmlns="http://www.w3.org/2000/svg">
<path d="M38.4375 0H1.5625C0.699463 0 0 0.699463 0 1.5625V38.4375C0 39.3005 0.699463 40 1.5625 40H7.5C8.36304 40 9.0625 39.3005 9.0625 38.4375V14.375H30.9375V38.4375C30.9375 39.3005 31.637 40 32.5 40H38.4375C39.3005 40 40 39.3005 40 38.4375C40 37.4701 40 2.93762 40 1.5625C40 0.699463 39.3005 0 38.4375 0ZM5.9375 36.875H3.125V14.375H5.9375V36.875ZM36.875 36.875H34.0625V14.375H36.875V36.875ZM36.875 11.25C35.5295 11.25 4.73083 11.25 3.125 11.25V3.125H36.875V11.25Z" fill="white"/>
</svg>
