<svg width="70" height="70" viewBox="0 0 70 70" fill="none" xmlns="http://www.w3.org/2000/svg">
<path d="M7.00001 12.8333H14C14.6443 12.8333 15.1667 12.311 15.1667 11.6667C15.1667 11.0223 14.6443 10.5 14 10.5H7.00001C6.35568 10.5 5.83334 11.0223 5.83334 11.6667C5.83334 12.311 6.35568 12.8333 7.00001 12.8333Z" fill="white"/>
<path d="M19.8333 12.8333H30.3333C30.9777 12.8333 31.5 12.311 31.5 11.6667C31.5 11.0223 30.9777 10.5 30.3333 10.5H19.8333C19.189 10.5 18.6667 11.0223 18.6667 11.6667C18.6667 12.311 19.189 12.8333 19.8333 12.8333Z" fill="white"/>
<path d="M7.00001 25.6666H44.3334C44.9777 25.6666 45.5 25.1443 45.5 24.4999C45.5 23.8556 44.9777 23.3333 44.3334 23.3333H7.00001C6.35568 23.3333 5.83334 23.8556 5.83334 24.4999C5.83334 25.1443 6.35568 25.6666 7.00001 25.6666Z" fill="white"/>
<path d="M7.00001 30.3333H23.3333C23.9777 30.3333 24.5 29.811 24.5 29.1667C24.5 28.5223 23.9777 28 23.3333 28H7.00001C6.35568 28 5.83334 28.5223 5.83334 29.1667C5.83334 29.811 6.35568 30.3333 7.00001 30.3333Z" fill="white"/>
<path d="M7.00001 39.6666H23.3333C23.9777 39.6666 24.5 39.1442 24.5 38.4999C24.5 37.8556 23.9777 37.3333 23.3333 37.3333H7.00001C6.35568 37.3333 5.83334 37.8556 5.83334 38.4999C5.83334 39.1442 6.35568 39.6666 7.00001 39.6666Z" fill="white"/>
<path d="M7.00001 49.0001H23.3333C23.9777 49.0001 24.5 48.4777 24.5 47.8334C24.5 47.1891 23.9777 46.6667 23.3333 46.6667H7.00001C6.35568 46.6667 5.83334 47.1891 5.83334 47.8334C5.83334 48.4777 6.35568 49.0001 7.00001 49.0001Z" fill="white"/>
<path d="M7.00001 58.3333H23.3333C23.9777 58.3333 24.5 57.811 24.5 57.1667C24.5 56.5223 23.9777 56 23.3333 56H7.00001C6.35568 56 5.83334 56.5223 5.83334 57.1667C5.83334 57.811 6.35568 58.3333 7.00001 58.3333Z" fill="white"/>
<path d="M69.3 33.985L56 28.2415V3.5C56 1.567 54.433 0 52.5 0H8.16667C6.23367 0 4.66667 1.567 4.66667 3.5V4.66667H3.5C1.567 4.66667 0 6.23367 0 8.16667V66.5C0 68.433 1.567 70 3.5 70H47.8333C48.7772 69.9979 49.68 69.6136 50.3358 68.9348L51.2925 69.615C52.0157 70.1284 52.9843 70.1284 53.7075 69.615L64.995 61.5802C68.124 59.3593 69.9881 55.7642 70 51.9272V35.056C70.0007 34.5915 69.7257 34.1708 69.3 33.985ZM7 3.5C7 2.85567 7.52233 2.33333 8.16667 2.33333H52.5C53.1443 2.33333 53.6667 2.85567 53.6667 3.5V27.2335L52.9667 26.929C52.6718 26.8018 52.3375 26.8018 52.0427 26.929L51.3427 27.2335V19.8333C51.3427 19.8077 51.3298 19.7832 51.3275 19.7575C51.3217 19.6598 51.3029 19.5632 51.2715 19.4705C51.2633 19.4437 51.2645 19.4157 51.254 19.39C51.2435 19.3643 51.2353 19.3643 51.2295 19.3503C51.1727 19.2234 51.0937 19.1076 50.9962 19.0085L36.9962 5.0085C36.897 4.91097 36.7813 4.83195 36.6543 4.77517C36.6392 4.76817 36.6287 4.7565 36.6147 4.75067C36.6007 4.74483 36.561 4.74133 36.5353 4.73317C36.4413 4.70185 36.3437 4.68264 36.2448 4.676C36.2157 4.6795 36.1923 4.66667 36.1667 4.66667H7V3.5ZM37.3333 8.64967L47.3503 18.6667H38.5C37.8557 18.6667 37.3333 18.1443 37.3333 17.5V8.64967ZM47.8333 67.6667H3.5C2.85567 67.6667 2.33333 67.1443 2.33333 66.5V8.16667C2.33333 7.52234 2.85567 7 3.5 7H35V17.5C35 19.433 36.567 21 38.5 21H49V28.2415L45.2445 29.8667C45.4057 29.6686 45.4957 29.422 45.5 29.1667C45.5 28.5223 44.9777 28 44.3333 28H28C27.3557 28 26.8333 28.5223 26.8333 29.1667C26.8333 29.811 27.3557 30.3333 28 30.3333H44.1572L38.7555 32.6667H7C6.35567 32.6667 5.83333 33.189 5.83333 33.8333C5.83333 34.4777 6.35567 35 7 35H35.0082C35.0082 35.0187 35 35.0362 35 35.056V37.3333H28C27.3557 37.3333 26.8333 37.8557 26.8333 38.5C26.8333 39.1443 27.3557 39.6667 28 39.6667H35V42H7C6.35567 42 5.83333 42.5223 5.83333 43.1667C5.83333 43.811 6.35567 44.3333 7 44.3333H35V46.6667H28C27.3557 46.6667 26.8333 47.189 26.8333 47.8333C26.8333 48.4777 27.3557 49 28 49H35V51.3333H7C6.35567 51.3333 5.83333 51.8557 5.83333 52.5C5.83333 53.1443 6.35567 53.6667 7 53.6667H35.1458C35.2618 54.4627 35.4597 55.2446 35.7362 56H28C27.3557 56 26.8333 56.5223 26.8333 57.1667C26.8333 57.811 27.3557 58.3333 28 58.3333H36.9145C37.4658 59.1917 38.1249 59.9759 38.8757 60.6667H7C6.35567 60.6667 5.83333 61.189 5.83333 61.8333C5.83333 62.4777 6.35567 63 7 63H42L48.356 67.5243C48.1958 67.6131 48.0165 67.662 47.8333 67.6667ZM67.6667 51.9272C67.6553 55.009 66.1567 57.8958 63.6428 59.6785L52.5 67.6107L41.3572 59.6773C38.8436 57.8948 37.3451 55.0086 37.3333 51.9272V35.8272L39.445 34.9148L39.4672 34.9055L52.5 29.2705L67.6667 35.8225V51.9272Z" fill="white"/>
<path d="M52.0333 32.0122L40.3667 37.0522C39.9409 37.238 39.666 37.6587 39.6667 38.1232V51.9272C39.6773 54.2539 40.8104 56.4324 42.7093 57.7769L51.8233 64.2647C52.2283 64.5531 52.7716 64.5531 53.1767 64.2647L62.2906 57.7769C64.1893 56.4321 65.3223 54.2538 65.3333 51.9272V38.1232C65.334 37.6587 65.0591 37.238 64.6333 37.0522L52.9667 32.0122C52.6691 31.8823 52.3309 31.8823 52.0333 32.0122ZM63 38.8955V51.9272C62.9915 53.5019 62.2227 54.9754 60.9361 55.8834L52.5 61.8824L44.0638 55.8764C42.7788 54.9702 42.0102 53.4995 42 51.9272V38.8897L52.5 34.3549L63 38.8955Z" fill="#1488CC"/>
<path d="M46.2 49.2334C45.8665 48.9833 45.425 48.9301 45.0417 49.0938C44.6584 49.2576 44.3916 49.6134 44.3417 50.0272C44.2919 50.441 44.4666 50.85 44.8 51.1001L49.4667 54.6001C49.9707 54.9783 50.6841 54.8879 51.0778 54.3959L60.4112 42.7292C60.8139 42.226 60.7324 41.4916 60.2292 41.0889C59.726 40.6862 58.9916 40.7677 58.5888 41.2709L49.9625 52.0556L46.2 49.2334Z" fill="#1488CC"/>
</svg>
