<svg width="66" height="60" viewBox="0 0 66 60" fill="none" xmlns="http://www.w3.org/2000/svg">
<path d="M58.9109 4.90711H57.3193V2.60742C57.3193 1.53956 56.4536 0.673828 55.3857 0.673828C54.3179 0.673828 53.4521 1.53956 53.4521 2.60742V4.90711H46.1264V2.6225C46.1264 1.55464 45.2607 0.68891 44.1928 0.68891C43.1249 0.68891 42.2592 1.55464 42.2592 2.6225V4.90711H34.9336V2.60742C34.9336 1.53956 34.0679 0.673828 33 0.673828C31.9321 0.673828 31.0664 1.53956 31.0664 2.60742V4.90711H23.7407V2.6225C23.7407 1.55464 22.8749 0.68891 21.8071 0.68891C20.7392 0.68891 19.8735 1.55464 19.8735 2.6225V4.90711H12.5477V2.60742C12.5477 1.53956 11.682 0.673828 10.6141 0.673828C9.54628 0.673828 8.68055 1.53956 8.68055 2.60742V4.90711H7.08907C3.18012 4.90711 0 8.09097 0 12.0044V52.2287C0 56.1423 3.18012 59.3262 7.08907 59.3262H58.9109C62.8199 59.3262 66 56.1423 66 52.2287V12.0044C66 8.09097 62.8199 4.90711 58.9109 4.90711ZM7.08907 8.7743H8.68068V11.0437C8.68068 12.1116 9.54641 12.9773 10.6143 12.9773C11.6821 12.9773 12.5479 12.1116 12.5479 11.0437V8.7743H19.8736V11.0589C19.8736 12.1268 20.7393 12.9925 21.8072 12.9925C22.8751 12.9925 23.7408 12.1268 23.7408 11.0589V8.7743H31.0664V11.0437C31.0664 12.1116 31.9321 12.9773 33 12.9773C34.0679 12.9773 34.9336 12.1116 34.9336 11.0437V8.7743H42.2593V11.0589C42.2593 12.1268 43.1251 12.9925 44.1929 12.9925C45.2608 12.9925 46.1265 12.1268 46.1265 11.0589V8.7743H53.4523V11.0437C53.4523 12.1116 54.318 12.9773 55.3859 12.9773C56.4537 12.9773 57.3195 12.1116 57.3195 11.0437V8.7743H58.9111C60.6876 8.7743 62.1329 10.2233 62.1329 12.0046V15.2362H3.86719V12.0046C3.86719 10.2233 5.31248 8.7743 7.08907 8.7743ZM58.9109 55.459H7.08907C5.31248 55.459 3.86719 54.0099 3.86719 52.2287V19.1034H62.1328V52.2289C62.1328 54.0099 60.6875 55.459 58.9109 55.459Z" fill="white"/>
<path d="M14.2141 23.3945H10.424C9.35615 23.3945 8.49042 24.2603 8.49042 25.3281C8.49042 26.396 9.35615 27.2617 10.424 27.2617H14.2141C15.282 27.2617 16.1477 26.396 16.1477 25.3281C16.1477 24.2603 15.282 23.3945 14.2141 23.3945Z" fill="white"/>
<path d="M24.604 23.3945H20.8138C19.746 23.3945 18.8803 24.2603 18.8803 25.3281C18.8803 26.396 19.746 27.2617 20.8138 27.2617H24.604C25.6718 27.2617 26.5375 26.396 26.5375 25.3281C26.5375 24.2603 25.6718 23.3945 24.604 23.3945Z" fill="white"/>
<path d="M34.9937 23.3945H31.2034C30.1356 23.3945 29.2698 24.2603 29.2698 25.3281C29.2698 26.396 30.1356 27.2617 31.2034 27.2617H34.9937C36.0615 27.2617 36.9273 26.396 36.9273 25.3281C36.9273 24.2603 36.0615 23.3945 34.9937 23.3945Z" fill="white"/>
<path d="M41.396 27.2617H45.1862C46.254 27.2617 47.1197 26.396 47.1197 25.3281C47.1197 24.2603 46.254 23.3945 45.1862 23.3945H41.396C40.3282 23.3945 39.4625 24.2603 39.4625 25.3281C39.4625 26.396 40.3282 27.2617 41.396 27.2617Z" fill="white"/>
<path d="M55.576 23.3945H51.7859C50.718 23.3945 49.8523 24.2603 49.8523 25.3281C49.8523 26.396 50.718 27.2617 51.7859 27.2617H55.576C56.6439 27.2617 57.5096 26.396 57.5096 25.3281C57.5096 24.2603 56.6439 23.3945 55.576 23.3945Z" fill="white"/>
<path d="M14.2141 31.2142H10.424C9.35615 31.2142 8.49042 32.08 8.49042 33.1478C8.49042 34.2157 9.35615 35.0814 10.424 35.0814H14.2141C15.282 35.0814 16.1477 34.2157 16.1477 33.1478C16.1477 32.08 15.282 31.2142 14.2141 31.2142Z" fill="white"/>
<path d="M24.604 31.2142H20.8138C19.746 31.2142 18.8803 32.08 18.8803 33.1478C18.8803 34.2157 19.746 35.0814 20.8138 35.0814H24.604C25.6718 35.0814 26.5375 34.2157 26.5375 33.1478C26.5375 32.08 25.6718 31.2142 24.604 31.2142Z" fill="white"/>
<path d="M34.9937 31.2142H31.2034C30.1356 31.2142 29.2698 32.08 29.2698 33.1478C29.2698 34.2157 30.1356 35.0814 31.2034 35.0814H34.9937C36.0615 35.0814 36.9273 34.2157 36.9273 33.1478C36.9273 32.08 36.0615 31.2142 34.9937 31.2142Z" fill="white"/>
<path d="M14.2141 38.9965H10.424C9.35615 38.9965 8.49042 39.8622 8.49042 40.9301C8.49042 41.9979 9.35615 42.8636 10.424 42.8636H14.2141C15.282 42.8636 16.1477 41.9979 16.1477 40.9301C16.1477 39.8622 15.282 38.9965 14.2141 38.9965Z" fill="white"/>
<path d="M24.604 38.9965H20.8138C19.746 38.9965 18.8803 39.8622 18.8803 40.9301C18.8803 41.9979 19.746 42.8636 20.8138 42.8636H24.604C25.6718 42.8636 26.5375 41.9979 26.5375 40.9301C26.5375 39.8622 25.6718 38.9965 24.604 38.9965Z" fill="white"/>
<path d="M34.9937 38.9965H31.2034C30.1356 38.9965 29.2698 39.8622 29.2698 40.9301C29.2698 41.9979 30.1356 42.8636 31.2034 42.8636H34.9937C36.0615 42.8636 36.9273 41.9979 36.9273 40.9301C36.9273 39.8622 36.0615 38.9965 34.9937 38.9965Z" fill="white"/>
<path d="M14.2141 46.8164H10.424C9.35615 46.8164 8.49042 47.6821 8.49042 48.75C8.49042 49.8179 9.35615 50.6836 10.424 50.6836H14.2141C15.282 50.6836 16.1477 49.8179 16.1477 48.75C16.1477 47.6821 15.282 46.8164 14.2141 46.8164Z" fill="white"/>
<path d="M24.604 46.8164H20.8138C19.746 46.8164 18.8803 47.6821 18.8803 48.75C18.8803 49.8179 19.746 50.6836 20.8138 50.6836H24.604C25.6718 50.6836 26.5375 49.8179 26.5375 48.75C26.5375 47.6821 25.6718 46.8164 24.604 46.8164Z" fill="white"/>
<path d="M34.9937 46.8164H31.2034C30.1356 46.8164 29.2698 47.6821 29.2698 48.75C29.2698 49.8179 30.1356 50.6836 31.2034 50.6836H34.9937C36.0615 50.6836 36.9273 49.8179 36.9273 48.75C36.9273 47.6821 36.0615 46.8164 34.9937 46.8164Z" fill="white"/>
<path d="M41.396 35.0814H45.1862C46.254 35.0814 47.1197 34.2157 47.1197 33.1478C47.1197 32.08 46.254 31.2142 45.1862 31.2142H41.396C40.3282 31.2142 39.4625 32.08 39.4625 33.1478C39.4625 34.2157 40.3282 35.0814 41.396 35.0814Z" fill="white"/>
<path d="M55.576 31.2142H51.7859C50.718 31.2142 49.8523 32.08 49.8523 33.1478C49.8523 34.2157 50.718 35.0814 51.7859 35.0814H55.576C56.6439 35.0814 57.5096 34.2157 57.5096 33.1478C57.5096 32.08 56.6439 31.2142 55.576 31.2142Z" fill="white"/>
<path d="M55.576 39.2543H41.396C40.3282 39.2543 39.4625 40.12 39.4625 41.1879V48.7499C39.4625 49.8178 40.3282 50.6835 41.396 50.6835H55.576C56.6439 50.6835 57.5096 49.8178 57.5096 48.7499V41.1879C57.5096 40.12 56.6439 39.2543 55.576 39.2543ZM53.6424 46.8163H43.3296V43.1215H53.6424V46.8163Z" fill="#0072B5"/>
</svg>
