<svg width="91" height="94" viewBox="0 0 91 94" fill="none" xmlns="http://www.w3.org/2000/svg">
<path d="M7.1875 79.375H12.4375C13.163 79.375 13.75 78.7873 13.75 78.0625V68.875H45.25V78.0625C45.25 78.7873 45.837 79.375 46.5625 79.375H78.0625C78.788 79.375 79.375 78.7873 79.375 78.0625V58.375C79.375 58.027 79.2366 57.6931 78.9905 57.447L76.75 55.2065V1.9375C76.75 1.21267 76.163 0.625 75.4375 0.625H7.1875C3.56915 0.625 0.625 3.56915 0.625 7.1875V72.8125C0.625 76.4309 3.56915 79.375 7.1875 79.375ZM59.6875 76.75V63.625H64.9375V76.75H59.6875ZM76.75 76.75H67.5625V62.3125C67.5625 61.5877 66.9755 61 66.25 61H58.375C57.6495 61 57.0625 61.5877 57.0625 62.3125V76.75H47.875V58.9185L62.3125 44.481L67.947 50.1155C68.3239 50.4917 68.8878 50.6038 69.3774 50.4C69.8683 50.1969 70.1875 49.7181 70.1875 49.1875V45.25H74.125V55.75C74.125 56.098 74.2634 56.4319 74.5095 56.678L76.75 58.9185V76.75ZM7.1875 3.25H74.125V42.625H68.875C68.1495 42.625 67.5625 43.2127 67.5625 43.9375V46.019L63.2405 41.697C62.7278 41.1843 61.8972 41.1843 61.3845 41.697L45.6345 57.447C45.3884 57.6931 45.25 58.027 45.25 58.375V66.25H13.75V12.4375C13.75 11.7127 13.163 11.125 12.4375 11.125H7.1875C5.01623 11.125 3.25 9.35877 3.25 7.1875C3.25 5.01623 5.01623 3.25 7.1875 3.25ZM3.25 12.4343C4.34717 13.2597 5.71094 13.75 7.1875 13.75H11.125V76.75H7.1875C5.01623 76.75 3.25 74.9838 3.25 72.8125V12.4343Z" fill="white"/>
<path d="M19 54.4375H26.875C27.6005 54.4375 28.1875 53.8498 28.1875 53.125C28.1875 51.4139 29.2847 49.954 30.8125 49.4124V53.125C30.8125 53.8498 31.3995 54.4375 32.125 54.4375H41.3125C42.038 54.4375 42.625 53.8498 42.625 53.125V36.0625H68.875C69.6005 36.0625 70.1875 35.4748 70.1875 34.75V8.5C70.1875 7.77517 69.6005 7.1875 68.875 7.1875H19C18.2745 7.1875 17.6875 7.77517 17.6875 8.5V53.125C17.6875 53.8498 18.2745 54.4375 19 54.4375ZM67.5625 33.4375H51.8125V30.8125H55.75C56.4755 30.8125 57.0625 30.2248 57.0625 29.5C57.0625 26.3309 54.8041 23.679 51.8125 23.0695V9.8125H67.5625V33.4375ZM34.75 9.8125V22.9375H33.4375V25.5625H36.0625C36.788 25.5625 37.375 24.9748 37.375 24.25V9.8125H49.1875V24.25C49.1875 24.9748 49.7745 25.5625 50.5 25.5625C52.2111 25.5625 53.671 26.6597 54.2132 28.1875H50.5C49.7745 28.1875 49.1875 28.7752 49.1875 29.5V33.4375H41.3125C40.587 33.4375 40 34.0252 40 34.75V51.8125H33.4375V47.875C33.4375 47.1502 32.8505 46.5625 32.125 46.5625C28.9553 46.5625 26.3046 48.8209 25.6945 51.8125H20.3125V25.5625H29.5V22.9375H20.3125V9.8125H34.75Z" fill="white"/>
<path d="M16.375 61H19V63.625H16.375V61Z" fill="white"/>
<path d="M21.625 61H24.25V63.625H21.625V61Z" fill="white"/>
<path d="M26.875 61H29.5V63.625H26.875V61Z" fill="white"/>
<mask id="mask0" mask-type="alpha" maskUnits="userSpaceOnUse" x="45" y="39" width="46" height="55">
<path d="M77 42.5H74L70 39.5H60.5C60.1 39.5 50 48.8333 45 53.5V65.5V81C47.6667 84.8333 54.1 92.6 58.5 93C64 93.5 80.5 86 88 83.5C94 81.5 87.5 72.3333 83.5 68L77 42.5Z" fill="#C4C4C4"/>
</mask>
<g mask="url(#mask0)">
<path d="M7.1875 79.375H12.4375C13.163 79.375 13.75 78.7873 13.75 78.0625V68.875H45.25V78.0625C45.25 78.7873 45.837 79.375 46.5625 79.375H78.0625C78.788 79.375 79.375 78.7873 79.375 78.0625V58.375C79.375 58.027 79.2366 57.6931 78.9905 57.447L76.75 55.2065V1.9375C76.75 1.21267 76.163 0.625 75.4375 0.625H7.1875C3.56915 0.625 0.625 3.56915 0.625 7.1875V72.8125C0.625 76.4309 3.56915 79.375 7.1875 79.375ZM59.6875 76.75V63.625H64.9375V76.75H59.6875ZM76.75 76.75H67.5625V62.3125C67.5625 61.5877 66.9755 61 66.25 61H58.375C57.6495 61 57.0625 61.5877 57.0625 62.3125V76.75H47.875V58.9185L62.3125 44.481L67.947 50.1155C68.3239 50.4917 68.8878 50.6038 69.3774 50.4C69.8683 50.1969 70.1875 49.7181 70.1875 49.1875V45.25H74.125V55.75C74.125 56.098 74.2634 56.4319 74.5095 56.678L76.75 58.9185V76.75ZM7.1875 3.25H74.125V42.625H68.875C68.1495 42.625 67.5625 43.2127 67.5625 43.9375V46.019L63.2405 41.697C62.7278 41.1843 61.8972 41.1843 61.3845 41.697L45.6345 57.447C45.3884 57.6931 45.25 58.027 45.25 58.375V66.25H13.75V12.4375C13.75 11.7127 13.163 11.125 12.4375 11.125H7.1875C5.01623 11.125 3.25 9.35877 3.25 7.1875C3.25 5.01623 5.01623 3.25 7.1875 3.25ZM3.25 12.4343C4.34717 13.2597 5.71094 13.75 7.1875 13.75H11.125V76.75H7.1875C5.01623 76.75 3.25 74.9838 3.25 72.8125V12.4343Z" fill="#0072B5"/>
<path d="M19 54.4375H26.875C27.6005 54.4375 28.1875 53.8498 28.1875 53.125C28.1875 51.4139 29.2847 49.954 30.8125 49.4124V53.125C30.8125 53.8498 31.3995 54.4375 32.125 54.4375H41.3125C42.038 54.4375 42.625 53.8498 42.625 53.125V36.0625H68.875C69.6005 36.0625 70.1875 35.4748 70.1875 34.75V8.5C70.1875 7.77517 69.6005 7.1875 68.875 7.1875H19C18.2745 7.1875 17.6875 7.77517 17.6875 8.5V53.125C17.6875 53.8498 18.2745 54.4375 19 54.4375ZM67.5625 33.4375H51.8125V30.8125H55.75C56.4755 30.8125 57.0625 30.2248 57.0625 29.5C57.0625 26.3309 54.8041 23.679 51.8125 23.0695V9.8125H67.5625V33.4375ZM34.75 9.8125V22.9375H33.4375V25.5625H36.0625C36.788 25.5625 37.375 24.9748 37.375 24.25V9.8125H49.1875V24.25C49.1875 24.9748 49.7745 25.5625 50.5 25.5625C52.2111 25.5625 53.671 26.6597 54.2132 28.1875H50.5C49.7745 28.1875 49.1875 28.7752 49.1875 29.5V33.4375H41.3125C40.587 33.4375 40 34.0252 40 34.75V51.8125H33.4375V47.875C33.4375 47.1502 32.8505 46.5625 32.125 46.5625C28.9553 46.5625 26.3046 48.8209 25.6945 51.8125H20.3125V25.5625H29.5V22.9375H20.3125V9.8125H34.75Z" fill="#0072B5"/>
<path d="M16.375 61H19V63.625H16.375V61Z" fill="#0072B5"/>
<path d="M21.625 61H24.25V63.625H21.625V61Z" fill="#0072B5"/>
<path d="M26.875 61H29.5V63.625H26.875V61Z" fill="#0072B5"/>
</g>
</svg>
