<svg width="66" height="78" viewBox="0 0 66 78" fill="none" xmlns="http://www.w3.org/2000/svg">
<path d="M6.19116 41.4277H28.1287C28.8026 41.4277 29.3474 40.8829 29.3474 40.209V35.334C29.3474 34.66 28.8026 34.1152 28.1287 34.1152H6.19116C5.51719 34.1152 4.97241 34.66 4.97241 35.334V40.209C4.97241 40.8829 5.51719 41.4277 6.19116 41.4277ZM7.40991 36.5527H26.9099V38.9902H7.40991V36.5527Z" fill="#0072B5"/>
<path d="M25.6912 43.8652C23.6754 43.8652 22.0349 45.5057 22.0349 47.5215C22.0349 49.5373 23.6754 51.1777 25.6912 51.1777C27.707 51.1777 29.3474 49.5373 29.3474 47.5215C29.3474 45.5057 27.707 43.8652 25.6912 43.8652ZM25.6912 48.7402C25.0184 48.7402 24.4724 48.1942 24.4724 47.5215C24.4724 46.8487 25.0184 46.3027 25.6912 46.3027C26.3639 46.3027 26.9099 46.8487 26.9099 47.5215C26.9099 48.1942 26.3639 48.7402 25.6912 48.7402Z" fill="#0072B5"/>
<path d="M17.1599 43.8652C15.1441 43.8652 13.5037 45.5057 13.5037 47.5215C13.5037 49.5373 15.1441 51.1777 17.1599 51.1777C19.1757 51.1777 20.8162 49.5373 20.8162 47.5215C20.8162 45.5057 19.1757 43.8652 17.1599 43.8652ZM17.1599 48.7402C16.4872 48.7402 15.9412 48.1942 15.9412 47.5215C15.9412 46.8487 16.4872 46.3027 17.1599 46.3027C17.8327 46.3027 18.3787 46.8487 18.3787 47.5215C18.3787 48.1942 17.8327 48.7402 17.1599 48.7402Z" fill="#0072B5"/>
<path d="M8.62866 51.1777C10.6445 51.1777 12.2849 49.5373 12.2849 47.5215C12.2849 45.5057 10.6445 43.8652 8.62866 43.8652C6.61285 43.8652 4.97241 45.5057 4.97241 47.5215C4.97241 49.5373 6.61285 51.1777 8.62866 51.1777ZM8.62866 46.3027C9.30141 46.3027 9.84741 46.8487 9.84741 47.5215C9.84741 48.1942 9.30141 48.7402 8.62866 48.7402C7.95591 48.7402 7.40991 48.1942 7.40991 47.5215C7.40991 46.8487 7.95591 46.3027 8.62866 46.3027Z" fill="#0072B5"/>
<path d="M25.6912 52.3965C23.6754 52.3965 22.0349 54.0369 22.0349 56.0527C22.0349 58.0685 23.6754 59.709 25.6912 59.709C27.707 59.709 29.3474 58.0685 29.3474 56.0527C29.3474 54.0369 27.707 52.3965 25.6912 52.3965ZM25.6912 57.2715C25.0184 57.2715 24.4724 56.7255 24.4724 56.0527C24.4724 55.38 25.0184 54.834 25.6912 54.834C26.3639 54.834 26.9099 55.38 26.9099 56.0527C26.9099 56.7255 26.3639 57.2715 25.6912 57.2715Z" fill="#0072B5"/>
<path d="M17.1599 52.3965C15.1441 52.3965 13.5037 54.0369 13.5037 56.0527C13.5037 58.0685 15.1441 59.709 17.1599 59.709C19.1757 59.709 20.8162 58.0685 20.8162 56.0527C20.8162 54.0369 19.1757 52.3965 17.1599 52.3965ZM17.1599 57.2715C16.4872 57.2715 15.9412 56.7255 15.9412 56.0527C15.9412 55.38 16.4872 54.834 17.1599 54.834C17.8327 54.834 18.3787 55.38 18.3787 56.0527C18.3787 56.7255 17.8327 57.2715 17.1599 57.2715Z" fill="#0072B5"/>
<path d="M8.62866 59.709C10.6445 59.709 12.2849 58.0685 12.2849 56.0527C12.2849 54.0369 10.6445 52.3965 8.62866 52.3965C6.61285 52.3965 4.97241 54.0369 4.97241 56.0527C4.97241 58.0685 6.61285 59.709 8.62866 59.709ZM8.62866 54.834C9.30141 54.834 9.84741 55.38 9.84741 56.0527C9.84741 56.7255 9.30141 57.2715 8.62866 57.2715C7.95591 57.2715 7.40991 56.7255 7.40991 56.0527C7.40991 55.38 7.95591 54.834 8.62866 54.834Z" fill="#0072B5"/>
<path d="M25.6912 60.9277C23.6754 60.9277 22.0349 62.5682 22.0349 64.584C22.0349 66.5998 23.6754 68.2402 25.6912 68.2402C27.707 68.2402 29.3474 66.5998 29.3474 64.584C29.3474 62.5682 27.707 60.9277 25.6912 60.9277ZM25.6912 65.8027C25.0184 65.8027 24.4724 65.2567 24.4724 64.584C24.4724 63.9112 25.0184 63.3652 25.6912 63.3652C26.3639 63.3652 26.9099 63.9112 26.9099 64.584C26.9099 65.2567 26.3639 65.8027 25.6912 65.8027Z" fill="#0072B5"/>
<path d="M17.1599 60.9277C15.1441 60.9277 13.5037 62.5682 13.5037 64.584C13.5037 66.5998 15.1441 68.2402 17.1599 68.2402C19.1757 68.2402 20.8162 66.5998 20.8162 64.584C20.8162 62.5682 19.1757 60.9277 17.1599 60.9277ZM17.1599 65.8027C16.4872 65.8027 15.9412 65.2567 15.9412 64.584C15.9412 63.9112 16.4872 63.3652 17.1599 63.3652C17.8327 63.3652 18.3787 63.9112 18.3787 64.584C18.3787 65.2567 17.8327 65.8027 17.1599 65.8027Z" fill="#0072B5"/>
<path d="M8.62866 68.2402C10.6445 68.2402 12.2849 66.5998 12.2849 64.584C12.2849 62.5682 10.6445 60.9277 8.62866 60.9277C6.61285 60.9277 4.97241 62.5682 4.97241 64.584C4.97241 66.5998 6.61285 68.2402 8.62866 68.2402ZM8.62866 63.3652C9.30141 63.3652 9.84741 63.9112 9.84741 64.584C9.84741 65.2567 9.30141 65.8027 8.62866 65.8027C7.95591 65.8027 7.40991 65.2567 7.40991 64.584C7.40991 63.9112 7.95591 63.3652 8.62866 63.3652Z" fill="#0072B5"/>
<path d="M45.1729 18.2958H45.0815C44.6988 15.2989 42.9206 12.6262 40.2979 11.0991V10.586C40.2979 10.5238 40.2723 10.469 40.2625 10.4093C40.2491 10.3203 40.2418 10.2313 40.2101 10.1472C40.1809 10.0704 40.1321 10.0083 40.087 9.93882C40.0468 9.87544 40.0139 9.81085 39.9615 9.756C39.8945 9.6841 39.8128 9.63535 39.7312 9.58172C39.6861 9.55247 39.6532 9.5086 39.6032 9.48544C39.591 9.47935 39.5776 9.47569 39.5666 9.4696C39.5569 9.46594 39.5484 9.46228 39.5386 9.45863C36.9549 8.24841 33.9056 8.24719 31.306 9.45497C31.2999 9.45741 31.2938 9.45863 31.2877 9.46228C31.2743 9.46838 31.2621 9.47203 31.2487 9.47813C31.1926 9.50372 31.1561 9.55247 31.1061 9.58538C31.0293 9.63657 30.9513 9.68166 30.8879 9.74747C30.8355 9.80475 30.8026 9.87178 30.7612 9.93516C30.7173 10.0034 30.6686 10.0643 30.6381 10.1411C30.6064 10.224 30.6003 10.313 30.5857 10.4019C30.5759 10.4629 30.5503 10.5177 30.5503 10.5799V11.0942C27.9227 12.6213 26.1409 15.2952 25.757 18.2946H25.6729C24.9989 18.2946 24.4542 18.8393 24.4542 19.5133V23.1696C24.4542 23.8435 24.9989 24.3883 25.6729 24.3883H45.1729C45.8469 24.3883 46.3916 23.8435 46.3916 23.1696V19.5133C46.3916 18.8406 45.8469 18.2958 45.1729 18.2958ZM30.5503 14.0643V14.6371C30.5503 15.3111 31.0951 15.8558 31.7691 15.8558C32.4431 15.8558 32.9878 15.3111 32.9878 14.6371V11.4001C34.5612 10.8468 36.2943 10.8492 37.8604 11.4025V14.6371C37.8604 15.3111 38.4052 15.8558 39.0791 15.8558C39.7531 15.8558 40.2979 15.3111 40.2979 14.6371V14.0716C41.5179 15.1721 42.3381 16.6651 42.6172 18.2958H28.2213C28.5028 16.6614 29.3255 15.1648 30.5503 14.0643ZM43.9541 21.952H26.8917V20.7333H43.9541V21.952Z" fill="white"/>
<path d="M52.4976 34.1323H56.1538C56.8278 34.1323 57.3726 33.5875 57.3726 32.9136C57.3726 32.2396 56.8278 31.6948 56.1538 31.6948H52.4976C51.8236 31.6948 51.2788 32.2396 51.2788 32.9136C51.2788 33.5875 51.8236 34.1323 52.4976 34.1323Z" fill="white"/>
<path d="M56.1537 37.7886H51.2775C50.6035 37.7886 50.0587 38.3334 50.0587 39.0073C50.0587 39.6813 50.6035 40.2261 51.2775 40.2261H56.1537C56.8277 40.2261 57.3724 39.6813 57.3724 39.0073C57.3724 38.3334 56.8277 37.7886 56.1537 37.7886Z" fill="white"/>
<path d="M56.1538 43.8823H52.4976C51.8236 43.8823 51.2788 44.4271 51.2788 45.1011C51.2788 45.775 51.8236 46.3198 52.4976 46.3198H56.1538C56.8278 46.3198 57.3726 45.775 57.3726 45.1011C57.3726 44.4271 56.8278 43.8823 56.1538 43.8823Z" fill="white"/>
<path d="M56.1539 49.9761H53.7177C53.0437 49.9761 52.4989 50.5209 52.4989 51.1948C52.4989 51.8688 53.0437 52.4136 53.7177 52.4136H56.1539C56.8279 52.4136 57.3727 51.8688 57.3727 51.1948C57.3727 50.5209 56.8279 49.9761 56.1539 49.9761Z" fill="white"/>
<path d="M56.1538 56.0697H52.4976C51.8236 56.0697 51.2788 56.6145 51.2788 57.2885C51.2788 57.9624 51.8236 58.5072 52.4976 58.5072H56.1538C56.8278 58.5072 57.3726 57.9624 57.3726 57.2885C57.3726 56.6145 56.8278 56.0697 56.1538 56.0697Z" fill="white"/>
<path d="M56.1537 62.1635H51.2775C50.6035 62.1635 50.0587 62.7082 50.0587 63.3822C50.0587 64.0562 50.6035 64.601 51.2775 64.601H56.1537C56.8277 64.601 57.3724 64.0562 57.3724 63.3822C57.3724 62.7082 56.8277 62.1635 56.1537 62.1635Z" fill="white"/>
<path d="M65.9002 9.75245C65.8989 9.59767 65.8685 9.44411 65.8088 9.29908C65.7466 9.14917 65.6576 9.01389 65.5443 8.90177L57.0167 0.368078C56.9046 0.254734 56.7693 0.165766 56.6194 0.103609C56.4707 0.0414531 56.3123 0.00976562 56.1538 0.00976562H17.1599C16.4859 0.00976562 15.9412 0.554547 15.9412 1.22852V29.2403H3.75366C1.73785 29.2403 0.0974121 30.8807 0.0974121 32.8965V37.7715V69.459V74.334C0.0974121 76.3498 1.73785 77.9903 3.75366 77.9903H30.5662C32.582 77.9903 34.2224 76.3498 34.2224 74.334V73.1104H64.6839C65.3578 73.1104 65.9026 72.5656 65.9026 71.8916V9.76708C65.9026 9.76708 65.9026 9.76708 65.9026 9.76586V9.76464C65.9026 9.75977 65.9002 9.75611 65.9002 9.75245ZM57.3726 4.1718L61.743 8.54589H57.3726V4.1718ZM2.53491 32.8965C2.53491 32.2238 3.08091 31.6778 3.75366 31.6778H30.5662C31.2389 31.6778 31.7849 32.2238 31.7849 32.8965V37.7715V69.459C31.7849 70.1318 31.2389 70.6778 30.5662 70.6778H3.75366C3.08091 70.6778 2.53491 70.1318 2.53491 69.459V37.7715V32.8965ZM30.5662 75.5528H3.75366C3.08091 75.5528 2.53491 75.0068 2.53491 74.334V72.8898C2.9176 73.0263 3.32344 73.1153 3.75366 73.1153H30.5662C30.9964 73.1153 31.4022 73.0275 31.7849 72.8898V74.334C31.7849 75.0068 31.2389 75.5528 30.5662 75.5528ZM34.2224 69.459V64.6011H45.1814C45.8554 64.6011 46.4002 64.0563 46.4002 63.3823C46.4002 62.7084 45.8554 62.1636 45.1814 62.1636H34.2224V58.5073H45.1814C45.8554 58.5073 46.4002 57.9625 46.4002 57.2886C46.4002 56.6146 45.8554 56.0698 45.1814 56.0698H34.2224V52.4136H45.1814C45.8554 52.4136 46.4002 51.8688 46.4002 51.1948C46.4002 50.5209 45.8554 49.9761 45.1814 49.9761H34.2224V46.3198H45.1814C45.8554 46.3198 46.4002 45.775 46.4002 45.1011C46.4002 44.4271 45.8554 43.8823 45.1814 43.8823H34.2224V40.2261H45.1814C45.8554 40.2261 46.4002 39.6813 46.4002 39.0073C46.4002 38.3334 45.8554 37.7886 45.1814 37.7886H34.2224V37.7715V34.1323H45.1814C45.8554 34.1323 46.4002 33.5875 46.4002 32.9136C46.4002 32.2396 45.8554 31.6948 45.1814 31.6948H34.003C33.5021 30.2701 32.1578 29.2403 30.5662 29.2403H18.3787V2.44727H54.9351V9.76464C54.9351 10.4386 55.4799 10.9834 56.1538 10.9834H63.4651V70.6741H34.2224V69.459Z" fill="white"/>
</svg>
