<svg width="38" height="18" viewBox="0 0 38 18" fill="none" xmlns="http://www.w3.org/2000/svg">
<path d="M37.5646 7.97248L37.5633 7.9711L29.8071 0.422705C29.2261 -0.142771 28.2862 -0.140667 27.7078 0.42764C27.1295 0.995874 27.1318 1.91496 27.7128 2.48051L32.9203 7.54839H1.48437C0.664554 7.54839 0 8.19827 0 9C0 9.80173 0.664554 10.4516 1.48437 10.4516H32.9202L27.7129 15.5195C27.1318 16.085 27.1296 17.0041 27.7079 17.5724C28.2863 18.1407 29.2262 18.1427 29.8072 17.5773L37.5634 10.0289L37.5647 10.0275C38.146 9.46009 38.1442 8.53802 37.5646 7.97248Z" fill="#fff"/>
</svg>
