<svg width="38" height="18" viewBox="0 0 38 18" fill="none" xmlns="http://www.w3.org/2000/svg">
<path d="M0.43539 7.97248L0.436722 7.9711L8.19287 0.422705C8.77393 -0.142771 9.71377 -0.140667 10.2922 0.42764C10.8705 0.995874 10.8682 1.91496 10.2872 2.48051L5.0797 7.54839H36.5156C37.3354 7.54839 38 8.19827 38 9C38 9.80173 37.3354 10.4516 36.5156 10.4516H5.07977L10.2871 15.5195C10.8682 16.085 10.8704 17.0041 10.2921 17.5724C9.71369 18.1407 8.77378 18.1427 8.1928 17.5773L0.436649 10.0289L0.435314 10.0275C-0.146042 9.46009 -0.144184 8.53802 0.43539 7.97248Z" fill="white"/>
</svg>
